<svg height="22" viewBox="0 0 5.8208332 5.8208335" width="22" xmlns="http://www.w3.org/2000/svg"><g transform="translate(0 -291.17916)"><rect fill="#fdd583" height="4.762512" rx="2.116651" width="5.291667" x=".264583" y="291.70834"/><g fill="#8f5315"><path d="m1.3387874 293.3345a.39688697.39687501 60 0 0 .037078.30917.39688697.39687501 60 0 0 .5421414.14526.39688697.39687501 60 0 0 .1452674-.54214.39688697.39687501 60 0 0 -.060279-.0786l-.6642054.16628z"/><path d="m4.4818203 293.3248-.6646531-.16654a.39687501.39688697 30 0 0 -.059833.0788.39687501.39688697 30 0 0 .1452663.54214.39687501.39688697 30 0 0 .5421414-.14527.39687501.39688697 30 0 0 .037079-.30916z"/><path d="m2.0195147 295.41246a1.0583336 1.7197847 0 0 1 .890385-.79375 1.0583336 1.7197847 0 0 1 .8914186.79375h-.1038699a1.0583334 1.5875001 0 0 0 -.7875487-.52917 1.0583334 1.5875001 0 0 0 -.7870321.52917z"/></g></g></svg>